<svg xmlns="http://www.w3.org/2000/svg" width="64" height="64" viewBox="0 0 64 64"><defs><style>.a{fill:#fff;}.b{fill:none;}</style></defs><g transform="translate(-1232.345 -606.12)"><path class="a" d="M1238.354,662.149a6.008,6.008,0,0,1-6-6v-44.02a6.008,6.008,0,0,1,6-6.006h48.023a6.01,6.01,0,0,1,6,6.006v16.008a2,2,0,0,1-4,0v-6h-52.026v34.018a2,2,0,0,0,2,2h16.008a2,2,0,0,1,0,4Zm50.024-44.021v-6a2,2,0,0,0-2-2h-48.022a2,2,0,0,0-2,2h0v6Z"/><path class="a" d="M1268.539,670.116a8.391,8.391,0,0,1-5.88-2.694,8.479,8.479,0,0,1,0-11.5l3.5-3.5a8.024,8.024,0,0,1,5.68-2.35,8.8,8.8,0,0,1,.987.059,2,2,0,0,1-.251,3.99,1.822,1.822,0,0,1-.221-.011,4.382,4.382,0,0,0-.512-.032,4.039,4.039,0,0,0-2.86,1.183l-3.442,3.441a4.447,4.447,0,0,0,3.143,7.418h.173a4.411,4.411,0,0,0,3.015-1.191l3.392-3.391a4.11,4.11,0,0,0,1.139-3.434,2,2,0,0,1,1.706-2.257h0a1.986,1.986,0,0,1,.278-.019,2.008,2.008,0,0,1,1.979,1.726,8.14,8.14,0,0,1-2.265,6.806l-3.453,3.451a8.477,8.477,0,0,1-5.8,2.313C1268.748,670.121,1268.646,670.121,1268.539,670.116Z"/><path class="a" d="M1284.878,654.217a8.04,8.04,0,0,1-1.1-.078,1.995,1.995,0,0,1,.277-3.98,1.972,1.972,0,0,1,.277.019,3.932,3.932,0,0,0,.553.037,4.145,4.145,0,0,0,2.893-1.183l3.437-3.441a4.348,4.348,0,0,0,1.111-3.133,4.454,4.454,0,0,0-7.457-3.092l-3.37,3.391a4.04,4.04,0,0,0-1.15,3.356,2.007,2.007,0,0,1-1.741,2.231,1.88,1.88,0,0,1-.237.013,2.01,2.01,0,0,1-2-1.756,8.029,8.029,0,0,1,2.284-6.667l3.431-3.446a8.449,8.449,0,0,1,12,11.879l-3.5,3.5A8.19,8.19,0,0,1,1284.878,654.217Z"/><path class="a" d="M1272.37,660.148a1.981,1.981,0,0,1-1.414-.587,2.005,2.005,0,0,1,0-2.83l12.006-12.006a2,2,0,0,1,2.821-.007l.007.007a2.006,2.006,0,0,1,0,2.83l-12.006,12.006A1.982,1.982,0,0,1,1272.37,660.148Z"/><rect class="b" width="64" height="64" transform="translate(1232.345 606.12)"/></g></svg>