<svg xmlns="http://www.w3.org/2000/svg" width="36" height="36" viewBox="0 0 36 36"><defs><style>.a{fill:none;}.b{fill:#2e6bdc;}</style></defs><g transform="translate(-15685 -16225)"><rect class="a" width="36" height="36" transform="translate(15685 16225)"/><g transform="translate(14804.125 15672.073)"><path class="b" d="M898.871,566.055v8.158a1.051,1.051,0,0,0,2.1,0v-8.158a1.051,1.051,0,0,0-2.1,0Z"/><path class="b" d="M904,569.084h-8.158a1.051,1.051,0,0,0,0,2.1H904a1.051,1.051,0,0,0,0-2.1Z"/><path class="b" d="M888.687,583.3l-4.1-.692a.938.938,0,0,1,.313-1.849l3.17.536,1.166-6.9-3.171-.536a.938.938,0,0,1,.313-1.849l4.095.693a.937.937,0,0,1,.768,1.08l-1.478,8.745a.938.938,0,0,1-1.08.768"/><path class="b" d="M890.029,580.981c.924.5,1.723.937,2.443,1.334,2.6,1.435,3.909,2.154,5.212,2.248,1.327.093,2.928-.427,6.118-1.464,1.036-.338,2.269-.739,3.716-1.191-.458-.578-.775-.832-1.135-.8l-4.6.71a1.983,1.983,0,0,1-1.533.368l-5.731-.969a.938.938,0,1,1,.312-1.85l5.732.968c.037.006.077.013.158-.074a1.243,1.243,0,0,0,.26-.607c.064-.376-.019-.756-.171-.782-.71-.12-1.157-.193-1.521-.253-.563-.093-.932-.154-1.762-.3a.927.927,0,0,1-.533-.3,6.311,6.311,0,0,0-3.687-2.1l-2.352-.4Zm6.946,5.389c-1.432-.242-2.886-1.021-5.41-2.413-.864-.477-1.845-1.018-3.013-1.64a.937.937,0,0,1-.485-.984l1.191-7.043a.937.937,0,0,1,1.081-.769l3.275.554a8.068,8.068,0,0,1,4.544,2.449c.612.109.95.164,1.432.244.365.06.814.134,1.527.254a2.3,2.3,0,0,1,1.739,2.731l3.265-.5a.261.261,0,0,1,.039-.006c1.663-.184,2.6,1.136,3.5,2.415l.151.213a.934.934,0,0,1,.124.847.948.948,0,0,1-.614.6c-1.986.606-3.625,1.138-4.94,1.567-3.835,1.246-5.6,1.793-7.409,1.488"/><path class="b" d="M900,562.6a1.1,1.1,0,0,1-1.1-1.1v-5a1.1,1.1,0,0,1,2.2,0v5A1.1,1.1,0,0,1,900,562.6Z"/><path class="b" d="M895.005,564.224a1.1,1.1,0,0,1-.891-.454l-2.939-4.045a1.1,1.1,0,1,1,1.78-1.293l2.939,4.045a1.1,1.1,0,0,1-.889,1.747Z"/><path class="b" d="M891.916,568.474a1.062,1.062,0,0,1-.34-.055l-4.756-1.545a1.1,1.1,0,0,1,.681-2.092l2.377.772h0l2.378.773a1.1,1.1,0,0,1-.34,2.146Z"/><path class="b" d="M912.839,575.272a1.092,1.092,0,0,1-.34-.054l-2.377-.772h0l-2.378-.773a1.1,1.1,0,1,1,.68-2.091l4.756,1.545a1.1,1.1,0,0,1-.341,2.146Z"/><path class="b" d="M908.084,568.474a1.1,1.1,0,0,1-.34-2.146l4.755-1.546a1.1,1.1,0,0,1,.681,2.092l-4.756,1.545A1.067,1.067,0,0,1,908.084,568.474Z"/><path class="b" d="M904.995,564.224a1.1,1.1,0,0,1-.889-1.747l1.47-2.023h0l1.469-2.022a1.1,1.1,0,0,1,1.78,1.293l-2.939,4.045A1.1,1.1,0,0,1,904.995,564.224Z"/></g></g></svg>