<svg xmlns="http://www.w3.org/2000/svg" xmlns:xlink="http://www.w3.org/1999/xlink" width="36" height="36" viewBox="0 0 36 36">
  <defs>
    <clipPath id="clip-path">
      <rect id="Rectangle_16964" data-name="Rectangle 16964" width="29.604" height="27.149" transform="translate(0 0)" fill="none"/>
    </clipPath>
  </defs>
  <g id="Group_116650" data-name="Group 116650" transform="translate(-19118 -16496)">
    <rect id="Rectangle_16965" data-name="Rectangle 16965" width="36" height="36" transform="translate(19118 16496)" fill="none"/>
    <g id="Group_116649" data-name="Group 116649" transform="translate(19121.199 16500.426)">
      <g id="Group_116648" data-name="Group 116648" clip-path="url(#clip-path)">
        <path id="Path_80889" data-name="Path 80889" d="M25.785,5.591H22.406V3.32c0-1.149-.917-3.32-4.391-3.32H11.589C8.116,0,7.2,2.171,7.2,3.32V5.591H3.819A3.824,3.824,0,0,0,0,9.409V23.33a3.824,3.824,0,0,0,3.819,3.819H25.785A3.823,3.823,0,0,0,29.6,23.33V9.409a3.823,3.823,0,0,0-3.819-3.818M9.554,3.359c.012-.168.169-1,2.035-1h6.426c1.866,0,2.023.836,2.036.965V5.591H9.554Zm17.6,19.971a1.372,1.372,0,0,1-1.371,1.37H3.819a1.371,1.371,0,0,1-1.37-1.37V9.409a1.371,1.371,0,0,1,1.37-1.37H25.785a1.372,1.372,0,0,1,1.371,1.37Z" fill="#2e6bdc"/>
        <path id="Path_80890" data-name="Path 80890" d="M20.541,15.308H19.313l-.181-.112-.085-.284a2.269,2.269,0,0,0-.085-.265,2.437,2.437,0,0,0-.131-.254l-.195-.354.974-.976a1.062,1.062,0,0,0-1.5-1.5l-.867.868-.21.049-.258-.139a2.1,2.1,0,0,0-.25-.128,1.9,1.9,0,0,0-.268-.086l-.242-.073-.15-.038V10.631a1.062,1.062,0,0,0-2.123,0v1.228l-.113.184-.279.082a1.922,1.922,0,0,0-.27.087,2.068,2.068,0,0,0-.248.127l-.361.2-.974-.975a1.062,1.062,0,0,0-1.5,1.5l.867.867.05.208-.138.255a2.438,2.438,0,0,0-.131.254,2.269,2.269,0,0,0-.085.265l-.115.4H9.064a1.062,1.062,0,0,0,0,2.123h1.228l.181.113.085.284a2.253,2.253,0,0,0,.085.264,2.437,2.437,0,0,0,.131.254l.2.355-.975.975a1.063,1.063,0,0,0,0,1.5,1.061,1.061,0,0,0,1.5,0l.867-.868.212-.048.254.138a2.269,2.269,0,0,0,.25.129,2.666,2.666,0,0,0,.271.087l.391.11v1.382a1.062,1.062,0,1,0,2.123,0V20.88l.109-.18.282-.084a2.666,2.666,0,0,0,.271-.087,2.269,2.269,0,0,0,.25-.129l.361-.195.972.973a1.061,1.061,0,0,0,1.5,0,1.063,1.063,0,0,0,0-1.5l-.867-.867-.05-.208.138-.255a2.437,2.437,0,0,0,.131-.254,2.254,2.254,0,0,0,.085-.264l.115-.4h1.379a1.062,1.062,0,0,0,0-2.123m-3.383,1.343a1.518,1.518,0,0,1-.021.181,1.6,1.6,0,0,1-.051.18l-.032.107c-.016.055-.032.11-.052.16a1.171,1.171,0,0,1-.072.141l-.059.112a1.4,1.4,0,0,1-.091.161,2.025,2.025,0,0,1-.164.2,2.582,2.582,0,0,1-.332.327,1.687,1.687,0,0,1-.157.125,1.512,1.512,0,0,1-.162.09l-.1.051a1.45,1.45,0,0,1-.157.08,1.521,1.521,0,0,1-.153.05l-.115.035a1.392,1.392,0,0,1-.18.051,2.214,2.214,0,0,1-.243.025c-.073.007-.146.011-.219.011s-.147,0-.283-.016a1.371,1.371,0,0,1-.176-.02,1.284,1.284,0,0,1-.184-.051l-.115-.035c-.052-.015-.1-.03-.154-.05a1.534,1.534,0,0,1-.156-.08l-.095-.051a1.461,1.461,0,0,1-.163-.091,2.148,2.148,0,0,1-.2-.164,2.552,2.552,0,0,1-.326-.334,1.219,1.219,0,0,1-.215-.316l-.059-.112a1.207,1.207,0,0,1-.071-.138,1.544,1.544,0,0,1-.052-.163l-.033-.107a1.562,1.562,0,0,1-.051-.181,2.231,2.231,0,0,1-.027-.255,2.7,2.7,0,0,1,.006-.488,1.321,1.321,0,0,1,.021-.18,1.654,1.654,0,0,1,.051-.183l.033-.1a1.573,1.573,0,0,1,.051-.16,1.307,1.307,0,0,1,.076-.149l.06-.112a1.249,1.249,0,0,1,.087-.155,2.051,2.051,0,0,1,.163-.2,2.649,2.649,0,0,1,.332-.327,1.629,1.629,0,0,1,.159-.126c.049-.032.1-.059.155-.087,0,0,.209-.112.255-.132a1.307,1.307,0,0,1,.164-.053l.106-.032a1.274,1.274,0,0,1,.179-.051,2.02,2.02,0,0,1,.257-.028C14.665,14,14.733,14,14.8,14s.137,0,.265.013a1.289,1.289,0,0,1,.194.023,1.185,1.185,0,0,1,.183.051l.107.032a1.347,1.347,0,0,1,.163.053c.047.02.256.132.256.132.052.028.105.055.157.089a2.148,2.148,0,0,1,.2.164,2.7,2.7,0,0,1,.328.335,1.673,1.673,0,0,1,.123.155,1.332,1.332,0,0,1,.085.153l.061.112a1.483,1.483,0,0,1,.075.149c.02.051.036.1.052.16l.032.1a1.612,1.612,0,0,1,.051.184,1.994,1.994,0,0,1,.027.254,2.7,2.7,0,0,1-.006.488" fill="#2e6bdc"/>
      </g>
    </g>
  </g>
</svg>
