<svg xmlns="http://www.w3.org/2000/svg" width="36" height="36" viewBox="0 0 36 36"><defs><style>.a{fill:#2e6bdc;}.b{fill:none;}</style></defs><g transform="translate(-19180 -15864)"><g transform="translate(18285.594 15645.988)"><path class="a" d="M904.15,250.8a2.936,2.936,0,0,1-2.927-2.918V237.865h-.845a2.793,2.793,0,0,1-2.45-1.488,2.977,2.977,0,0,1,.623-3.455l11.714-10.858a3.13,3.13,0,0,1,4.256-.009l.115.105,11.6,10.806a2.965,2.965,0,0,1,.745,3.224,2.687,2.687,0,0,1-2.549,1.669h-.963V247.8a2.918,2.918,0,0,1-2.8,2.991l-.135,0H916.3a2.49,2.49,0,0,1-2.487-2.487v-5.5l-3.005.066.066,5.434a2.49,2.49,0,0,1-2.488,2.487H904.15Zm-2.559-15.135a1.834,1.834,0,0,1,1.832,1.832v10.379a.734.734,0,0,0,.734.724h4.23a.288.288,0,0,0,.287-.287v-5.5a2.137,2.137,0,0,1,2.135-2.134h3.071a2.137,2.137,0,0,1,2.135,2.134v5.5a.287.287,0,0,0,.286.287h4.307a.72.72,0,0,0,.662-.75V237.492a1.834,1.834,0,0,1,1.832-1.832h1.355a.484.484,0,0,0,.488-.3.732.732,0,0,0-.189-.766l-11.647-10.851a.969.969,0,0,0-1.36-.055l-11.69,10.837a.767.767,0,0,0-.155.883.489.489,0,0,0,.454.257Z"/></g><rect class="b" width="36" height="36" transform="translate(19180 15864)"/></g></svg>