<svg xmlns="http://www.w3.org/2000/svg" width="36" height="36" viewBox="0 0 36 36"><defs><style>.a{fill:none;}.b{fill:#2e6bdc;}</style></defs><g transform="translate(-15619 -16092)"><rect class="a" width="36" height="36" transform="translate(15619 16092)"/><g transform="translate(14624.1 15761.299)"><path class="b" d="M1006.778,356.6h-5.1a3.779,3.779,0,0,1-3.775-3.774V338.476a3.78,3.78,0,0,1,3.775-3.775h22.65a3.78,3.78,0,0,1,3.775,3.775V352.83a1.1,1.1,0,1,1-2.2,0V338.476a1.577,1.577,0,0,0-1.575-1.575h-22.65a1.577,1.577,0,0,0-1.575,1.575V352.83a1.577,1.577,0,0,0,1.575,1.574h5.1a1.1,1.1,0,0,1,0,2.2Z"/><path class="b" d="M1004.7,356.086a1.1,1.1,0,0,1-1.1-1.1V336.319a1.1,1.1,0,1,1,2.2,0v18.667A1.1,1.1,0,0,1,1004.7,356.086Z"/><path class="b" d="M1015.809,362.049a1.1,1.1,0,0,1-.709-.259c-.4-.339-3.946-3.331-4.437-3.822a2.713,2.713,0,0,1,0-3.782,2.894,2.894,0,0,1,3.065-.673v-5.525a2.74,2.74,0,0,1,5.48,0V352c.786.188,1.887.452,2.225.53a3.007,3.007,0,0,1,2.335,2.941v5.481a1.1,1.1,0,0,1-2.2,0v-5.481a.808.808,0,0,0-.629-.8c-.548-.126-3.088-.737-3.088-.737a1.1,1.1,0,0,1-.843-1.069v-4.876a.54.54,0,0,0-1.079,0v7.333a1.1,1.1,0,0,1-1.676.937c-.006,0-.61-.374-1.118-.616a.759.759,0,0,0-.915.1.536.536,0,0,0,0,.67c.32.32,2.807,2.438,4.3,3.7a1.1,1.1,0,0,1-.71,1.941Z"/><path class="b" d="M1021.182,350.754a1.1,1.1,0,0,1-.919-1.7,4.667,4.667,0,1,0-7.813,0,1.1,1.1,0,0,1-1.84,1.207,6.868,6.868,0,1,1,11.493,0A1.1,1.1,0,0,1,1021.182,350.754Z"/></g></g></svg>