<svg xmlns="http://www.w3.org/2000/svg" width="395.669" height="72.624" viewBox="0 0 395.669 72.624"><defs><style>.a{fill:#fff;}</style></defs><path class="a" d="M477.741,169.43a11.373,11.373,0,0,1,4.744,4.667,15.223,15.223,0,0,1-.029,13.472,11.291,11.291,0,0,1-4.778,4.667,16.241,16.241,0,0,1-7.778,1.707h-9.306v14.323h-9.252V167.7h18.68A16,16,0,0,1,477.741,169.43Zm-4.449,15.913a5.227,5.227,0,0,0,1.856-4.491,5.335,5.335,0,0,0-1.8-4.432c-1.2-.959-3.094-1.438-5.691-1.438h-7.066v11.735h6.953C470.135,186.717,472.055,186.262,473.292,185.343Z" transform="translate(-451.342 -151.832)"/><path class="a" d="M490.035,167.7v7.8H468.585v8.336h19.682V191H468.585v9.456h21.921v7.807H459.334V167.7Z" transform="translate(-420.089 -151.832)"/><path class="a" d="M504.728,196.709a18.4,18.4,0,0,1-7.012,7.6,21.719,21.719,0,0,1-21.243,0,18.5,18.5,0,0,1-6.983-7.6,23.555,23.555,0,0,1-2.445-10.788,24.344,24.344,0,0,1,2.421-10.956,18.411,18.411,0,0,1,6.953-7.695,21.636,21.636,0,0,1,21.244-.025A18.543,18.543,0,0,1,504.7,174.9a24.06,24.06,0,0,1,2.475,11.019A23.555,23.555,0,0,1,504.728,196.709Zm-11.667.825a10.68,10.68,0,0,0,3.654-4.773,18.214,18.214,0,0,0,1.208-6.84,19.163,19.163,0,0,0-1.208-7.066,10.628,10.628,0,0,0-3.654-4.837,10.032,10.032,0,0,0-6.035-1.768,9.779,9.779,0,0,0-5.893,1.743,10.412,10.412,0,0,0-3.629,4.832,19.4,19.4,0,0,0-1.208,7.1,18.443,18.443,0,0,0,1.208,6.87,10.431,10.431,0,0,0,3.629,4.768,11.008,11.008,0,0,0,11.927-.025Z" transform="translate(-390.122 -164.471)"/><path class="a" d="M503.325,169.43a11.363,11.363,0,0,1,4.739,4.667,15.2,15.2,0,0,1-.025,13.472,11.291,11.291,0,0,1-4.778,4.667,16.254,16.254,0,0,1-7.778,1.707h-9.31v14.323h-9.247V167.7H495.6A16.024,16.024,0,0,1,503.325,169.43Zm-4.454,15.913a5.227,5.227,0,0,0,1.856-4.491,5.335,5.335,0,0,0-1.8-4.432q-1.8-1.438-5.686-1.438h-7.071v11.735h6.958Q497.012,186.717,498.871,185.343Z" transform="translate(-351.592 -151.832)"/><path class="a" d="M494.169,167.7v32.755h19.677v7.807H484.917V167.7Z" transform="translate(-320.426 -151.832)"/><path class="a" d="M522.753,167.7v7.8H501.3v8.336h19.681V191H501.3v9.456h21.921v7.807H492.057V167.7Z" transform="translate(-292.589 -151.832)"/><path class="a" d="M526.531,167.7v3.4h-21.98v14.5h19.505v3.4H504.551v19.254h-4.007V167.7Z" transform="translate(-259.489 -151.832)"/><path class="a" d="M511.349,167.7v40.562h-4.012V167.7Z" transform="translate(-232.966 -151.832)"/><path class="a" d="M535.474,168.906a9.771,9.771,0,0,1,4.449,3.576,10.175,10.175,0,0,1,1.591,5.787,10.833,10.833,0,0,1-2.121,6.8A9.525,9.525,0,0,1,533.5,188.6v.113a6.905,6.905,0,0,1,4.155,2.113,13.575,13.575,0,0,1,2.416,5.43q.972,3.786,2.21,12.009h-4.066q-.884-6.222-1.621-9.568a25.359,25.359,0,0,0-1.326-4.613A7.265,7.265,0,0,0,533.854,192a7.043,7.043,0,0,0-5.185-1.756H514.29v18.021h-4.007V167.7H528.9A16.809,16.809,0,0,1,535.474,168.906Zm-2.328,17.018a7.533,7.533,0,0,0,3.211-2.7,7.308,7.308,0,0,0,1.208-4.192,7.438,7.438,0,0,0-2.3-5.9,9.485,9.485,0,0,0-6.482-2.025h-14.5v15.732h14.5A10.349,10.349,0,0,0,533.147,185.925Z" transform="translate(-221.525 -151.832)"/><path class="a" d="M544.641,178.673a7.286,7.286,0,0,0-3.389-5.807,14.284,14.284,0,0,0-7.807-1.942,12.783,12.783,0,0,0-7.366,1.942q-2.829,1.93-2.829,6.047a5.712,5.712,0,0,0,.855,3.258,5.526,5.526,0,0,0,2.3,1.937,20,20,0,0,0,3.683,1.2l8.893,2.109a22.278,22.278,0,0,1,6.34,2.383,9.3,9.3,0,0,1,3.506,3.518,10.221,10.221,0,0,1,1.12,4.9,12.076,12.076,0,0,1-1.237,5.2,10.569,10.569,0,0,1-4.715,4.521q-3.476,1.9-9.664,1.9a24.9,24.9,0,0,1-8.78-1.375,11.7,11.7,0,0,1-5.569-4.051,10.851,10.851,0,0,1-1.915-6.488v-.411h3.889v.289a7.119,7.119,0,0,0,3.3,6.487q3.3,2.092,9.134,2.084a15.88,15.88,0,0,0,8.426-1.991,6.679,6.679,0,0,0,3.241-6.106,5.676,5.676,0,0,0-2.033-4.584,15.254,15.254,0,0,0-6.158-2.7l-8.544-2.055a21.456,21.456,0,0,1-5.745-2.148,8.219,8.219,0,0,1-3.182-3.165,9.706,9.706,0,0,1-1.032-4.667,11.3,11.3,0,0,1,1.356-5.255,10.975,10.975,0,0,1,4.508-4.408,16.454,16.454,0,0,1,8.161-1.786,21.089,21.089,0,0,1,7.719,1.316,12.459,12.459,0,0,1,5.333,3.821,9.957,9.957,0,0,1,2.091,6.013Z" transform="translate(-191.268 -152.536)"/><path class="a" d="M557.853,167.7v3.4H543.646v37.158h-4V171.108H525.5v-3.4Z" transform="translate(-162.185 -151.832)"/><g transform="translate(71.812 46.977)"><path class="a" d="M511.287,199.716l-20.114-17.035-20.089,17.035-5.082-6,21.832-18.483a5.437,5.437,0,0,1,6.428-.211l22.1,18.695Z" transform="translate(-466.002 -174.069)"/></g></svg>