<svg xmlns="http://www.w3.org/2000/svg" width="64" height="64" viewBox="0 0 64 64"><defs><style>.a{fill:none;}.b,.c{fill:#fff;}.c{stroke:#fff;stroke-miterlimit:10;stroke-width:1.4px;}</style></defs><g transform="translate(-1623 -508)"><rect class="a" width="64" height="64" transform="translate(1623 508)"/><g transform="translate(-257.304 172.324)"><path class="b" d="M1884.922,395.7a14.447,14.447,0,0,1,28.576,0,2.027,2.027,0,0,0,2.473,1.4,2.056,2.056,0,0,0,1.4-2.472,18.441,18.441,0,0,0-36.33,0,2.067,2.067,0,0,0,1.4,2.472,2.027,2.027,0,0,0,2.473-1.4Z"/><path class="b" d="M1905.475,370.1a6.965,6.965,0,0,1-5.237,3.577,6.86,6.86,0,0,1-5.3-1.658,6.853,6.853,0,0,1,7.033-11.531,2.011,2.011,0,1,0,1.069-3.877,10.862,10.862,0,1,0,5.908,15.518c1.278-2.254-2.194-4.282-3.472-2.029Z"/><path class="b" d="M1916.482,379.82a1.918,1.918,0,0,1-1.92-1.92V367.221h-6.48a1.923,1.923,0,0,1-1.919-1.921V340.1a1.922,1.922,0,0,1,1.919-1.92h33.6a1.922,1.922,0,0,1,1.92,1.92v25.2a1.923,1.923,0,0,1-1.92,1.921h-11.8l-12.036,12.036A1.914,1.914,0,0,1,1916.482,379.82ZM1910,363.38h6.48a1.922,1.922,0,0,1,1.92,1.92v7.964l9.324-9.324a1.933,1.933,0,0,1,1.356-.56h10.681V342.021H1910Z"/><path class="c" d="M1924.587,359.7a1.219,1.219,0,1,1,1.219-1.219A1.179,1.179,0,0,1,1924.587,359.7Zm.03-5.191a.771.771,0,0,1-.871-.765v-.425a2.953,2.953,0,0,1,.6-2.076,4.784,4.784,0,0,1,1.4-1.187c1.106-.778,1.377-1.132,1.377-1.809,0-1.038-.8-1.657-2.127-1.657a2.254,2.254,0,0,0-2.348,1.622.816.816,0,0,1-.8.619,1.8,1.8,0,0,1-.3-.033.816.816,0,0,1-.707-.763,1.027,1.027,0,0,1,.055-.313,3.857,3.857,0,0,1,1.189-1.8,4.472,4.472,0,0,1,2.989-.918c2.341,0,3.853,1.251,3.853,3.187,0,1.346-.682,2.088-1.86,2.914-1.274.89-1.607,1.167-1.607,2.235v.409A.755.755,0,0,1,1924.617,354.51Z"/></g></g></svg>