<svg xmlns="http://www.w3.org/2000/svg" width="36" height="36" viewBox="0 0 36 36"><defs><style>.a{fill:none;}.b{fill:#2e6bdc;}</style></defs><g transform="translate(-15706 -16615)"><rect class="a" width="36" height="36" transform="translate(15706 16615)"/><g transform="translate(14756.947 15669.955)"><path class="b" d="M961.746,959.549h-4.078a2.349,2.349,0,0,1-1.048-.162c-.989-.47-1.059-1.317-1.059-2.34v-3.28c0-1.013.322-1.9,1.359-2.164a12.085,12.085,0,0,1,2.593-.059,19.311,19.311,0,0,1,2.494.013,1.911,1.911,0,0,1,1.56,2.15v3.555a3.006,3.006,0,0,1-.134,1.168,1.844,1.844,0,0,1-1.687,1.119,1.126,1.126,0,0,0,0,2.25,4.133,4.133,0,0,0,4.071-4.073c.02-1.025,0-2.051,0-3.076,0-1.443-.006-2.794-1.013-3.968a4.085,4.085,0,0,0-2.774-1.375c-.387-.031-.78-.013-1.167-.013-1.135,0-2.271-.009-3.406,0a4.114,4.114,0,0,0-4.064,3.28,19.458,19.458,0,0,0-.082,3.38,7.4,7.4,0,0,0,.534,3.791,4.082,4.082,0,0,0,2.678,1.961,8.409,8.409,0,0,0,1.7.093h3.523A1.126,1.126,0,0,0,961.746,959.549Z"/><path class="b" d="M976.746,959.549h-4.078a2.349,2.349,0,0,1-1.048-.162c-.989-.47-1.059-1.317-1.059-2.34v-3.28c0-1.013.322-1.9,1.359-2.164a12.085,12.085,0,0,1,2.593-.059,19.311,19.311,0,0,1,2.494.013,1.911,1.911,0,0,1,1.56,2.15v3.555a3.006,3.006,0,0,1-.134,1.168,1.844,1.844,0,0,1-1.687,1.119,1.126,1.126,0,0,0,0,2.25,4.133,4.133,0,0,0,4.071-4.073c.02-1.025,0-2.051,0-3.076,0-1.443-.006-2.794-1.013-3.968a4.085,4.085,0,0,0-2.774-1.375c-.387-.031-.78-.013-1.167-.013-1.135,0-2.271-.009-3.406,0a4.114,4.114,0,0,0-4.064,3.28,19.458,19.458,0,0,0-.082,3.38,7.4,7.4,0,0,0,.534,3.791,4.082,4.082,0,0,0,2.678,1.961,8.409,8.409,0,0,0,1.7.093h3.523A1.126,1.126,0,0,0,976.746,959.549Z"/><path class="b" d="M961.746,974.549h-4.078a2.349,2.349,0,0,1-1.048-.162c-.989-.47-1.059-1.317-1.059-2.34v-3.28c0-1.013.322-1.9,1.359-2.164a12.085,12.085,0,0,1,2.593-.059,19.311,19.311,0,0,1,2.494.013,1.911,1.911,0,0,1,1.56,2.15v3.555a3.006,3.006,0,0,1-.134,1.168,1.844,1.844,0,0,1-1.687,1.119,1.126,1.126,0,0,0,0,2.25,4.133,4.133,0,0,0,4.071-4.073c.02-1.025,0-2.051,0-3.076,0-1.443-.006-2.794-1.013-3.968a4.085,4.085,0,0,0-2.774-1.375c-.387-.031-.78-.013-1.167-.013-1.135,0-2.271-.009-3.406,0a4.114,4.114,0,0,0-4.064,3.28,19.458,19.458,0,0,0-.082,3.38,7.4,7.4,0,0,0,.534,3.791,4.082,4.082,0,0,0,2.678,1.961,8.409,8.409,0,0,0,1.7.093h3.523A1.126,1.126,0,0,0,961.746,974.549Z"/><path class="b" d="M976.746,974.549h-4.078a2.349,2.349,0,0,1-1.048-.162c-.989-.47-1.059-1.317-1.059-2.34v-3.28c0-1.013.322-1.9,1.359-2.164a12.085,12.085,0,0,1,2.593-.059,19.311,19.311,0,0,1,2.494.013,1.911,1.911,0,0,1,1.56,2.15v3.555a3.006,3.006,0,0,1-.134,1.168,1.844,1.844,0,0,1-1.687,1.119,1.126,1.126,0,0,0,0,2.25,4.133,4.133,0,0,0,4.071-4.073c.02-1.025,0-2.051,0-3.076,0-1.443-.006-2.794-1.013-3.968a4.085,4.085,0,0,0-2.774-1.375c-.387-.031-.78-.013-1.167-.013-1.135,0-2.271-.009-3.406,0a4.114,4.114,0,0,0-4.064,3.28,19.458,19.458,0,0,0-.082,3.38,7.4,7.4,0,0,0,.534,3.791,4.082,4.082,0,0,0,2.678,1.961,8.409,8.409,0,0,0,1.7.093h3.523A1.126,1.126,0,0,0,976.746,974.549Z"/></g></g></svg>