<svg xmlns="http://www.w3.org/2000/svg" width="36" height="36" viewBox="0 0 36 36"><defs><style>.a{fill:none;}.b{fill:#2e6bdc;}</style></defs><g transform="translate(-15693 -16129)"><rect class="a" width="36" height="36" transform="translate(15693 16129)"/><g transform="translate(14723.078 15746.996)"><path class="b" d="M994.714,415.774H980.542a5.626,5.626,0,0,1-5.62-5.62V389.623a3.376,3.376,0,0,1,3.361-3.37l2.5-.008.007,2.2-2.5.008a1.172,1.172,0,0,0-1.167,1.17v20.531a3.423,3.423,0,0,0,3.419,3.42h14.172a1.165,1.165,0,0,0,1.163-1.163v-1.737h2.2v1.737A3.368,3.368,0,0,1,994.714,415.774Z"/><path class="b" d="M993.776,393.677A1.575,1.575,0,0,1,992.2,392.1l.012-6.782,2.2.01-.012,6.146,5.571-.013.007,2.2Z"/><path class="b" d="M997.818,412.52H982.143a3.265,3.265,0,0,1-3.26-3.261V387.511a3.265,3.265,0,0,1,3.259-3.261l11.806-.016h.006a1.486,1.486,0,0,1,1.073.463l5.646,5.982a1.479,1.479,0,0,1,.405,1.018v17.562A3.265,3.265,0,0,1,997.818,412.52Zm-15.675-26.069a1.061,1.061,0,0,0-1.06,1.06v21.748a1.061,1.061,0,0,0,1.06,1.06h15.675a1.06,1.06,0,0,0,1.059-1.06V391.981l-5.235-5.546Zm11.807-.017h0Z"/><path class="b" d="M991.59,396.428h-7.412a1.1,1.1,0,0,1,0-2.2h7.412a1.1,1.1,0,0,1,0,2.2Z"/><path class="b" d="M991.59,399.671h-7.412a1.1,1.1,0,0,1,0-2.2h7.412a1.1,1.1,0,0,1,0,2.2Z"/><path class="b" d="M989.026,407.74l-4.479-5.209a1.1,1.1,0,0,1,.834-1.818h1.233a2.143,2.143,0,0,0,0-4.285h-2.469a1.1,1.1,0,1,1,0-2.2h2.469a4.343,4.343,0,0,1,1.053,8.557l3.027,3.52Z"/></g></g></svg>