<svg xmlns="http://www.w3.org/2000/svg" width="36" height="36" viewBox="0 0 36 36"><defs><style>.a{fill:#2e6bdc;}.b{fill:none;}</style></defs><g transform="translate(-295 -260)"><g transform="translate(-599.688 -14)"><path class="a" d="M916.183,304.76H899.75a2.484,2.484,0,0,1-2.474-2.489,10.691,10.691,0,1,1,21.381,0A2.484,2.484,0,0,1,916.183,304.76ZM907.966,293.7a8.542,8.542,0,0,0-8.49,8.573.286.286,0,0,0,.274.289h16.433a.286.286,0,0,0,.274-.289A8.542,8.542,0,0,0,907.966,293.7Zm0-2.99a5.734,5.734,0,1,1,5.692-5.734A5.72,5.72,0,0,1,907.966,290.708Zm0-9.268a3.534,3.534,0,1,0,3.492,3.534A3.517,3.517,0,0,0,907.966,281.44Z"/><path class="a" d="M925.94,304.76H916v-2.2h9.94a6.392,6.392,0,0,0-6.339-6.334,6.267,6.267,0,0,0-4,1.451l-1.408-1.69a8.482,8.482,0,0,1,13.907,6.6A2.168,2.168,0,0,1,925.94,304.76Z"/><path class="a" d="M919.406,292.575a4.483,4.483,0,1,1,4.452-4.483A4.473,4.473,0,0,1,919.406,292.575Zm0-6.765a2.283,2.283,0,1,0,2.252,2.282A2.269,2.269,0,0,0,919.406,285.81Z"/></g><rect class="b" width="36" height="36" transform="translate(295 260)"/></g></svg>