<svg xmlns="http://www.w3.org/2000/svg" width="36" height="36" viewBox="0 0 36 36"><defs><style>.a{fill:none;}.b{fill:#2e6bdc;}</style></defs><g transform="translate(-15598 -15888)"><rect class="a" width="36" height="36" transform="translate(15598 15888)"/><g transform="translate(14722.412 14890.229)"><path class="b" d="M895.859,1028.228H880.936a2.357,2.357,0,0,1-2.348-2.362,9.81,9.81,0,1,1,19.619,0A2.357,2.357,0,0,1,895.859,1028.228Zm-7.462-10.046a7.656,7.656,0,0,0-7.609,7.684.158.158,0,0,0,.148.162h14.923a.158.158,0,0,0,.148-.162A7.656,7.656,0,0,0,888.4,1018.182Zm0-3.793a5.309,5.309,0,1,1,5.27-5.308A5.3,5.3,0,0,1,888.4,1014.389Zm0-8.417a3.109,3.109,0,1,0,3.07,3.109A3.093,3.093,0,0,0,888.4,1005.972Z"/><path class="b" d="M908.312,1005.972H896.519a1.1,1.1,0,1,1,0-2.2h11.793a1.1,1.1,0,0,1,0,2.2Z"/><path class="b" d="M908.312,1011.311h-9.639a1.1,1.1,0,0,1,0-2.2h9.639a1.1,1.1,0,0,1,0,2.2Z"/><path class="b" d="M908.312,1016.648h-7.485a1.1,1.1,0,1,1,0-2.2h7.485a1.1,1.1,0,1,1,0,2.2Z"/></g></g></svg>