<svg xmlns="http://www.w3.org/2000/svg" width="64" height="64" viewBox="0 0 64 64"><defs><style>.a{fill:none;}.b{fill:#fff;}</style></defs><g transform="translate(-723 -70)"><rect class="a" width="64" height="64" transform="translate(723 70)"/><g transform="translate(-75.762 -614.517)"><g transform="translate(823.466 704.233)"><path class="b" d="M853.364,708.551v34c0,.589.014,1.18,0,1.769-.009.362.059.541-.158.636a3.42,3.42,0,0,1-1.052,0H829.439a6.461,6.461,0,0,1-1.561,0c-.286-.081-.187-.045-.236-.354a9.385,9.385,0,0,1,0-1.4V709.74a4.244,4.244,0,0,1,0-1.134c.085-.256.1-.209.433-.213.638-.008,1.275,0,1.913,0h22.593c.326,0,.765-.077.783.158.2,2.449,4.042,2.47,3.843,0a4.111,4.111,0,0,0-4.05-4c-.528-.022-1.061,0-1.59,0h-7.779c-5.2,0-10.394-.06-15.59,0a4.184,4.184,0,0,0-4.4,4.311c-.028,1.588,0,3.178,0,4.767V731.9c0,4.225-.1,8.461,0,12.685.061,2.693,2.027,4.217,4.586,4.217h23.49c.44,0,.884.019,1.324,0a4.092,4.092,0,0,0,4.009-4.01c.05-1.135,0-2.284,0-3.421V708.551C857.208,706.078,853.364,706.073,853.364,708.551Z" transform="translate(-823.756 -704.523)"/></g><g transform="translate(813.588 694.404)"><path class="b" d="M847.207,706.327v-4.251c0-1.463.263-3.267-.174-4.694-.742-2.423-2.963-2.831-5.135-2.831H818.91c-1.558,0-3.034.116-4.148,1.412a4.968,4.968,0,0,0-.963,3.487V727c0,2.639-.159,5.329.014,7.963a4.059,4.059,0,0,0,2.818,3.657,6.9,6.9,0,0,0,2.042.174h6.9c2.473,0,2.477-3.843,0-3.843h-6.467a4.1,4.1,0,0,1-1.309,0c-.214-.1-.146-.229-.158-.605-.024-.785,0-1.575,0-2.36V701.865c0-.952-.029-1.909,0-2.861.015-.513-.087-.535.37-.611a19.762,19.762,0,0,1,3.112,0H841.4a6.258,6.258,0,0,1,1.764,0c.275.1.2.295.2.733v7.2c0,2.473,3.843,2.478,3.843,0Z" transform="translate(-813.732 -694.55)"/></g><g transform="translate(803.763 684.517)"><path class="b" d="M815.576,724.955H809.2a4.4,4.4,0,0,1-1.4,0c-.231-.11-.158-.5-.158-.916V691.259c0-.781-.031-1.567,0-2.346.016-.412-.071-.445.289-.519a12.537,12.537,0,0,1,2.355,0h20.732a7.217,7.217,0,0,1,2.185,0c.233.1.161.333.161.733v7.2c0,2.473,3.843,2.478,3.843,0v-4.251a18.593,18.593,0,0,0-.135-4.533c-.935-3.557-4.807-2.992-7.608-2.992H808.556a4.533,4.533,0,0,0-3.945,1.606,4.889,4.889,0,0,0-.812,3.115v30.8c0,1.622-.092,3.276.014,4.9a4.037,4.037,0,0,0,2.978,3.7,7.524,7.524,0,0,0,1.881.135h6.9c2.473,0,2.478-3.843,0-3.843Z" transform="translate(-803.762 -684.517)"/></g><g transform="translate(829.876 711.377)"><path class="b" d="M830.683,717.242l1.478,1.478a1.5,1.5,0,0,0,2.091,0l3.876-3.877.559-.558a1.478,1.478,0,0,0-2.091-2.09l-3.876,3.876-.559.559h2.091l-1.478-1.478a1.478,1.478,0,0,0-2.091,2.09Z" transform="translate(-830.261 -711.772)"/><g transform="translate(13.293 2.199)"><path class="b" d="M845.228,716.961l3.629.013.522,0a1.478,1.478,0,0,0,0-2.956l-3.629-.013-.522,0a1.478,1.478,0,0,0,0,2.956Z" transform="translate(-843.749 -714.004)"/></g></g><g transform="translate(829.876 722.71)"><g transform="translate(13.293 2.199)"><path class="b" d="M845.228,728.461l3.629.013.522,0a1.478,1.478,0,0,0,0-2.956l-3.629-.013-.522,0a1.478,1.478,0,0,0,0,2.956Z" transform="translate(-843.749 -725.504)"/></g><path class="b" d="M830.683,728.742l1.478,1.478a1.5,1.5,0,0,0,2.091,0l3.876-3.877.559-.558a1.478,1.478,0,0,0-2.091-2.09l-3.876,3.876-.559.559h2.091l-1.478-1.478a1.478,1.478,0,0,0-2.091,2.09Z" transform="translate(-830.261 -723.272)"/></g><g transform="translate(829.876 734.043)"><path class="b" d="M830.683,740.242l1.478,1.478a1.5,1.5,0,0,0,2.091,0l3.876-3.877.559-.558a1.478,1.478,0,0,0-2.091-2.09l-3.876,3.876-.559.559h2.091l-1.478-1.478a1.478,1.478,0,0,0-2.091,2.09Z" transform="translate(-830.261 -734.772)"/><g transform="translate(13.293 2.199)"><path class="b" d="M845.228,739.961l3.629.013.522,0a1.478,1.478,0,0,0,0-2.956l-3.629-.013-.522,0a1.478,1.478,0,0,0,0,2.956Z" transform="translate(-843.749 -737.004)"/></g></g></g></g></svg>