<svg xmlns="http://www.w3.org/2000/svg" width="36" height="36" viewBox="0 0 36 36"><defs><style>.a,.c{fill:none;}.b{fill:#2e6bdc;}.c{stroke:#2e6bdc;stroke-miterlimit:10;stroke-width:0.75px;}</style></defs><g transform="translate(-15666 -16215)"><rect class="a" width="36" height="36" transform="translate(15666 16215)"/><g transform="translate(14795.621 15774.607)"><path class="b" d="M879.04,464.129a11.875,11.875,0,0,1,11.335-17.474c8.571.57,13.691,10.332,9.434,17.744a12.054,12.054,0,0,1-11.417,5.929c-1.445-.1-1.439,2.149,0,2.25a14.119,14.119,0,1,0-11.294-7.314c.67,1.284,2.613.148,1.942-1.135Z"/><path class="b" d="M878.682,464.948l-3.393-1.339-.49-.194a1.13,1.13,0,0,0-.867.114,1.124,1.124,0,0,0-.4,1.539,1.3,1.3,0,0,0,.672.517l3.393,1.339.49.194a1.13,1.13,0,0,0,.867-.114,1.125,1.125,0,0,0,.4-1.539,1.305,1.305,0,0,0-.673-.517Z"/><path class="b" d="M879.355,466.6l1.854-3.1.262-.438a1.125,1.125,0,0,0-1.942-1.136l-1.855,3.1-.262.438a1.125,1.125,0,0,0,1.943,1.136Z"/><path class="c" d="M876.079,464.927"/><path class="b" d="M893.55,453.239h-8.063a1.1,1.1,0,0,1,0-2.2h8.063a1.1,1.1,0,1,1,0,2.2Z"/><path class="b" d="M893.55,456.767h-8.063a1.1,1.1,0,0,1,0-2.2h8.063a1.1,1.1,0,0,1,0,2.2Z"/><path class="b" d="M890.834,465.578l-4.873-5.667a1.1,1.1,0,0,1,.834-1.817h1.341a2.427,2.427,0,0,0,0-4.855H885.45a1.1,1.1,0,1,1,0-2.2h2.686a4.628,4.628,0,0,1,.968,9.153l3.4,3.952Z"/></g></g></svg>