<svg xmlns="http://www.w3.org/2000/svg" width="173.908" height="31.92" viewBox="0 0 173.908 31.92"><defs><style>.a{fill:#fff;}</style></defs><path class="a" d="M462.945,168.462a5,5,0,0,1,2.085,2.051,6.691,6.691,0,0,1-.013,5.921,4.962,4.962,0,0,1-2.1,2.051,7.139,7.139,0,0,1-3.419.75h-4.09v6.3h-4.066V167.7h8.21A7.034,7.034,0,0,1,462.945,168.462Zm-1.955,6.994a2.3,2.3,0,0,0,.816-1.974,2.344,2.344,0,0,0-.79-1.948,4,4,0,0,0-2.5-.632h-3.106v5.158h3.056A4.252,4.252,0,0,0,460.99,175.456Z" transform="translate(-451.342 -160.727)"/><path class="a" d="M472.828,167.7v3.429H463.4V174.8h8.651v3.148H463.4V182.1h9.635v3.431h-13.7V167.7Z" transform="translate(-442.085 -160.727)"/><path class="a" d="M483.607,178.641a8.089,8.089,0,0,1-3.082,3.339,9.546,9.546,0,0,1-9.337,0,8.131,8.131,0,0,1-3.069-3.339,10.354,10.354,0,0,1-1.075-4.742,10.7,10.7,0,0,1,1.064-4.815,8.092,8.092,0,0,1,3.056-3.382,9.51,9.51,0,0,1,9.337-.011,8.15,8.15,0,0,1,3.093,3.365,10.576,10.576,0,0,1,1.088,4.843A10.355,10.355,0,0,1,483.607,178.641Zm-5.128.363a4.693,4.693,0,0,0,1.606-2.1,8.005,8.005,0,0,0,.531-3.007,8.422,8.422,0,0,0-.531-3.106,4.671,4.671,0,0,0-1.606-2.126,4.41,4.41,0,0,0-2.653-.777,4.3,4.3,0,0,0-2.59.766,4.577,4.577,0,0,0-1.6,2.124,8.525,8.525,0,0,0-.531,3.119,8.107,8.107,0,0,0,.531,3.02,4.585,4.585,0,0,0,1.6,2.1,4.838,4.838,0,0,0,5.243-.011Z" transform="translate(-433.235 -164.471)"/><path class="a" d="M488.528,168.462a4.994,4.994,0,0,1,2.083,2.051,6.682,6.682,0,0,1-.011,5.921,4.963,4.963,0,0,1-2.1,2.051,7.144,7.144,0,0,1-3.419.75h-4.092v6.3h-4.064V167.7h8.208A7.043,7.043,0,0,1,488.528,168.462Zm-1.958,6.994a2.3,2.3,0,0,0,.816-1.974,2.345,2.345,0,0,0-.79-1.948,3.992,3.992,0,0,0-2.5-.632h-3.108v5.158h3.058A4.244,4.244,0,0,0,486.571,175.456Z" transform="translate(-421.837 -160.727)"/><path class="a" d="M488.983,167.7v14.4h8.648v3.431H484.917V167.7Z" transform="translate(-412.618 -160.727)"/><path class="a" d="M505.549,167.7v3.429h-9.428V174.8h8.651v3.148h-8.651V182.1h9.635v3.431h-13.7V167.7Z" transform="translate(-404.385 -160.727)"/><path class="a" d="M511.966,167.7v1.5h-9.661v6.373h8.573v1.5h-8.573v8.463h-1.761V167.7Z" transform="translate(-394.593 -160.727)"/><path class="a" d="M509.1,167.7v17.828h-1.763V167.7Z" transform="translate(-386.743 -160.727)"/><path class="a" d="M521.355,168.232a4.3,4.3,0,0,1,1.955,1.572,4.473,4.473,0,0,1,.7,2.544,4.762,4.762,0,0,1-.932,2.991,4.187,4.187,0,0,1-2.59,1.55v.049a3.034,3.034,0,0,1,1.826.929,5.965,5.965,0,0,1,1.062,2.387q.427,1.664.971,5.278H522.56q-.388-2.735-.712-4.205a11.143,11.143,0,0,0-.583-2.028,3.2,3.2,0,0,0-.622-.916,3.1,3.1,0,0,0-2.279-.772h-6.32v7.921h-1.761V167.7h8.184A7.389,7.389,0,0,1,521.355,168.232Zm-1.023,7.48a3.311,3.311,0,0,0,1.411-1.187,3.212,3.212,0,0,0,.531-1.843,3.269,3.269,0,0,0-1.01-2.593,4.169,4.169,0,0,0-2.849-.89h-6.372v6.915h6.372A4.549,4.549,0,0,0,520.332,175.712Z" transform="translate(-383.365 -160.727)"/><path class="a" d="M529.746,172.424a3.2,3.2,0,0,0-1.489-2.552,6.278,6.278,0,0,0-3.432-.854,5.618,5.618,0,0,0-3.237.854,2.99,2.99,0,0,0-1.243,2.658,2.511,2.511,0,0,0,.375,1.432,2.428,2.428,0,0,0,1.01.852,8.793,8.793,0,0,0,1.619.529l3.909.927a9.792,9.792,0,0,1,2.786,1.047,4.087,4.087,0,0,1,1.541,1.546,4.492,4.492,0,0,1,.492,2.155,5.307,5.307,0,0,1-.544,2.286,4.646,4.646,0,0,1-2.072,1.987,8.938,8.938,0,0,1-4.247.836,10.945,10.945,0,0,1-3.859-.6,5.145,5.145,0,0,1-2.448-1.781,4.769,4.769,0,0,1-.842-2.851v-.181h1.709v.127a3.129,3.129,0,0,0,1.45,2.851,7.472,7.472,0,0,0,4.015.916,6.98,6.98,0,0,0,3.7-.875,2.936,2.936,0,0,0,1.425-2.684,2.5,2.5,0,0,0-.894-2.015,6.706,6.706,0,0,0-2.707-1.185l-3.755-.9a9.433,9.433,0,0,1-2.525-.944,3.615,3.615,0,0,1-1.4-1.391,4.267,4.267,0,0,1-.453-2.051,4.967,4.967,0,0,1,.6-2.31,4.822,4.822,0,0,1,1.981-1.937,7.232,7.232,0,0,1,3.587-.785,9.269,9.269,0,0,1,3.393.578,5.476,5.476,0,0,1,2.344,1.679,4.375,4.375,0,0,1,.919,2.643Z" transform="translate(-374.428 -160.936)"/><path class="a" d="M539.721,167.7v1.5h-6.244v16.332h-1.759V169.2H525.5v-1.5Z" transform="translate(-365.813 -160.727)"/><g transform="translate(31.563 20.648)"><path class="a" d="M485.906,185.342l-8.841-7.487-8.83,7.487L466,182.7l9.6-8.124a2.39,2.39,0,0,1,2.825-.093l9.715,8.217Z" transform="translate(-466.002 -174.069)"/></g></svg>