<svg xmlns="http://www.w3.org/2000/svg" width="24" height="24" viewBox="0 0 24 24"><defs><style>.a{fill:#2e6bdc;}.b{fill:none;}</style></defs><g transform="translate(0.234 0.233)"><g transform="translate(1.678 2.917)"><path class="a" d="M939.323,2895.53a9.752,9.752,0,0,1,8.791-6.144,8.82,8.82,0,0,1,3.093.564l.975-.975a10.149,10.149,0,0,0-4.068-.852,10.968,10.968,0,0,0-9.95,6.908,1.741,1.741,0,0,0,0,1.363,12.011,12.011,0,0,0,2.688,3.911l.9-.9a10.652,10.652,0,0,1-2.426-3.512A.479.479,0,0,1,939.323,2895.53Z" transform="translate(-938.025 -2886.875)"/><path class="a" d="M949.23,2893.8l1.111-1.112a3.88,3.88,0,0,0-4.8,4.8l1.112-1.111A2.627,2.627,0,0,1,949.23,2893.8Z" transform="translate(-939.198 -2887.577)"/><path class="a" d="M958.3,2894.8a11.84,11.84,0,0,0-3.641-4.73l2.351-2.351a.631.631,0,0,0-.892-.892l-16.438,16.438a.631.631,0,0,0,.892.892l2.538-2.538a10.221,10.221,0,0,0,5.241,1.452,10.968,10.968,0,0,0,9.95-6.908A1.742,1.742,0,0,0,958.3,2894.8Zm-7.334.692a2.629,2.629,0,0,1-2.626,2.627,2.6,2.6,0,0,1-1.351-.379l3.6-3.6A2.608,2.608,0,0,1,950.963,2895.487Zm6.176.173a9.753,9.753,0,0,1-8.791,6.144,8.941,8.941,0,0,1-4.307-1.124l2.035-2.036a3.882,3.882,0,0,0,5.418-5.418l2.255-2.256a10.506,10.506,0,0,1,3.389,4.322A.479.479,0,0,1,957.138,2895.66Z" transform="translate(-938.258 -2886.637)"/></g><rect class="b" width="24" height="24" transform="translate(-0.234 -0.233)"/></g></svg>